<svg xmlns="http://www.w3.org/2000/svg" viewBox="0 0 126.758 24" width="100%" height="100%" preserveAspectRatio="xMidYMid meet"><path d="M0 18.303c0-3.644 3.037-6.191 8.734-6.191h3.341v-.457c0-2.317-1.405-3.758-3.798-3.758-2.05 0-3.758 1.291-3.912 3.19H.154C.34 7.18 3.72 4.442 8.354 4.442c4.936 0 7.977 3 7.977 7.597v11.467h-4.139v-1.935C10.977 23.012 8.925 24 6.912 24 2.733 24 0 21.76 0 18.302m7.252 2.393c2.774 0 4.936-2.24 4.936-5.163v-.304h-3.34c-3.078 0-4.71 1.025-4.71 2.964 0 1.482 1.102 2.507 3.114 2.507zM20.36 0h4.214v12.569l6.876-7.633h5.163l-8.014 8.848 8.658 9.722h-5.47l-7.216-8.394v8.394h-4.216V0z"></path><path d="M35.309 14.241c0-5.583 4.292-9.799 9.722-9.799 4.482 0 8.28 3.037 8.848 7.14h-4.293c-.417-1.786-2.393-3.191-4.632-3.191-3.114 0-5.507 2.47-5.507 5.847s2.393 5.81 5.507 5.81c2.24 0 4.215-1.368 4.673-3.34h4.252C53.385 21.036 49.549 24 45.03 24c-5.43 0-9.722-4.178-9.722-9.759M55.055 14.432c0-5.697 4.52-9.99 9.723-9.99s9.074 3.949 9.074 9.002c0 .457-.036 1.065-.154 1.899H59.19c.417 3.114 2.774 5.05 5.697 5.05 2.203 0 4.062-1.102 4.556-2.774h4.179C72.71 21.263 69.293 24 64.62 24c-5.543 0-9.568-4.252-9.568-9.568zm14.468-2.543c-.153-2.126-2.126-3.835-4.745-3.835-2.393 0-4.443 1.482-5.28 3.835zM76.028 4.936h4.139v1.9c1.405-1.482 3.304-2.394 5.47-2.394 4.37 0 7.366 3.191 7.366 8.394v10.67H88.75V12.95c0-2.62-1.482-4.596-4.102-4.596s-4.405 1.862-4.405 4.823v10.33h-4.216zM95.55 0h4.216v4.936h4.976v3.685h-4.976v8.353c0 1.9.948 2.847 2.733 2.847h2.24v3.685h-2.774c-4.252 0-6.418-1.976-6.418-6.228V0zM20.615 12.115H11.44v3.114h9.174zM106.554 18.302c0-3.644 3.037-6.191 8.734-6.191h3.341v-.458c0-2.316-1.405-3.757-3.798-3.757-2.05 0-3.758 1.291-3.912 3.19h-4.215c.19-3.911 3.571-6.645 8.203-6.645 4.937 0 7.977 3 7.977 7.597v11.467h-4.138V21.57c-1.215 1.441-3.268 2.43-5.28 2.43-4.179 0-6.912-2.24-6.912-5.698m7.252 2.393c2.774 0 4.936-2.24 4.936-5.163v-.304h-3.341c-3.077 0-4.709 1.025-4.709 2.964 0 1.482 1.102 2.507 3.114 2.507z"></path><path d="M126.759 12.114h-9.02v3.114h9.02z"></path><defs><clipPath id="logo_svg__a"><path d="M0 0h126.758v24H0z"></path></clipPath></defs></svg>