<svg xmlns="http://www.w3.org/2000/svg" viewBox="0 0 242 30" width="100%" height="100%" preserveAspectRatio="xMidYMid meet">
  <g>
    <path
      id="Logo"
      d="M20.79 30H6.12c-.56 0-1.1-.22-1.48-.6L.62 25.42c-.4-.38-.62-.91-.62-1.46V.21C0 .09.1 0 .21 0h4.83c.12 0 .21.1.21.2v23.6c0 .56.47 1.03 1.05 1.03H20.8c.12 0 .21.09.21.2v4.76c0 .12-.1.21-.21.21M127.75 0c.11 0 .2.1.2.2v4.77c0 .11-.09.2-.2.2h-16.49c-.58 0-1.04.47-1.04 1.04v5.17c0 .57.47 1.04 1.04 1.04h11.66c.55 0 1.08.21 1.47.6l4 3.96c.39.39.61.91.61 1.46v5.53c0 .55-.22 1.08-.61 1.46l-4 3.96c-.39.4-.92.61-1.47.61h-16.66a.2.2 0 0 1-.2-.2v-4.77c0-.1.09-.2.2-.2h16.48c.58 0 1.04-.47 1.04-1.04v-5.17c0-.57-.46-1.04-1.04-1.04h-11.65a2.1 2.1 0 0 1-1.48-.6l-4-3.96c-.39-.39-.6-.91-.6-1.46L105 6.03c0-.55.22-1.08.61-1.46l4-3.96c.39-.4.92-.61 1.47-.61zM54.79 0c.1 0 .18.07.2.16l5.72 24.5c.02.1.1.17.2.17h1.77c.1 0 .19-.07.2-.17L68.57.16c.02-.1.1-.16.2-.16h5.43a.2.2 0 0 1 .2.25l-7.12 29.6a.21.21 0 0 1-.2.15H56.53a.21.21 0 0 1-.2-.16L49.2.25a.2.2 0 0 1 .2-.25zm46.99 0c.11 0 .2.1.2.2v4.77c0 .11-.09.2-.2.2H84.26c-.57 0-1.04.47-1.04 1.04v5.17c0 .57.47 1.03 1.04 1.03h12.31c.12 0 .21.09.21.2v4.76c0 .12-.1.2-.2.2l-12.32.02c-.57 0-1.04.46-1.04 1.03v5.17c0 .57.47 1.04 1.04 1.04h17.53c.12 0 .21.09.21.2v4.76c0 .12-.1.21-.2.21H84.07a2.1 2.1 0 0 1-1.47-.6l-4-3.97c-.39-.38-.61-.91-.61-1.46V6.03c0-.55.22-1.08.61-1.46l4-3.96C83 .2 83.53 0 84.08 0zm139.81 0c.12 0 .21.1.21.2v4.77c0 .11-.1.2-.2.2h-8.15c-.55 0-1 .42-1.04.96v23.66c0 .12-.1.21-.2.21h-4.81a.2.2 0 0 1-.21-.2V6.12c-.04-.54-.5-.96-1.04-.96h-8.14a.2.2 0 0 1-.21-.2V.2c0-.12.1-.21.2-.21zm-62.8 0c.54 0 1.07.22 1.46.6l3.95 3.97c.38.38.6.91.6 1.46v17.94c0 .55-.22 1.08-.6 1.46l-3.95 3.96c-.4.4-.92.61-1.46.61H165c-.54 0-1.07-.22-1.45-.6l-3.96-3.97c-.38-.38-.6-.91-.6-1.46V6.03c0-.55.22-1.08.6-1.46L163.55.6c.4-.4.92-.61 1.46-.61zm30.02 0c.54 0 1.07.22 1.45.6l3.86 3.97c.39.38.6.91.6 1.46v5.53c0 .55-.21 1.08-.6 1.46l-3.86 3.96c-.38.4-.9.61-1.45.61h-1.13L214.8 30h-5.94l-7.12-12.4h-6.66c-.52.04-.93.47-.94 1.01V29.8c0 .12-.09.21-.2.21h-4.73a.2.2 0 0 1-.21-.2V.2c0-.1.1-.2.2-.2zM150 0c.55 0 1.08.22 1.48.6l3.9 3.97c.4.38.62.91.62 1.46v5.53c0 .55-.22 1.08-.61 1.46l-3.91 3.96c-.4.4-.93.61-1.48.61h-11.83c-.53.05-.95.48-.95 1.02V29.8c0 .12-.1.21-.21.21h-4.8a.2.2 0 0 1-.21-.2V.2c0-.1.1-.2.2-.2zM46.6 0c.1 0 .2.1.2.2v4.76c0 .12-.1.2-.2.2h-7c-.54 0-.99.43-1.03.96v17.75c.04.54.49.96 1.03.96h7c.1 0 .2.09.2.2v4.76c0 .12-.1.21-.2.21H25.4a.2.2 0 0 1-.2-.2v-4.77c0-.11.1-.2.2-.2h7c.54 0 .99-.43 1.03-.96V6.12a1.03 1.03 0 0 0-1.03-.95h-7a.2.2 0 0 1-.2-.2V.2c0-.12.1-.21.2-.21zm132 5.17h-13.4c-.58 0-1.04.47-1.04 1.04v17.58c0 .57.46 1.04 1.03 1.04h13.42c.57 0 1.03-.47 1.03-1.04V6.21c0-.57-.46-1.04-1.03-1.04zm29.96 0h-13.4c-.56 0-1.01.46-1.02 1.03v5.19c0 .57.47 1.02 1.03 1.02h13.39c.57 0 1.03-.46 1.03-1.03V6.21c0-.57-.47-1.04-1.03-1.04zm-58.82 0h-11.49c-.57 0-1.03.46-1.03 1.03v5.19c0 .57.47 1.02 1.04 1.02h11.49c.57 0 1.04-.46 1.04-1.03V6.21c0-.57-.47-1.04-1.05-1.04z"></path>
  </g>
</svg>
