<svg
  xmlns="http://www.w3.org/2000/svg"
  version="1.0"
  viewBox="0 0 720.000000 720.000000"
  width="100%"
  height="100%"
  preserveAspectRatio="xMidYMid meet">
  <metadata>Created by potrace 1.11, written by Peter Selinger 2001-2013</metadata>
  <g transform="translate(0.000000,720.000000) scale(0.100000,-0.100000)" stroke="none">
    <path
      d="M2658 7024 c-3 -3 -17 -7 -32 -10 -14 -2 -41 -13 -58 -24 -18 -11 -39 -23 -46 -26 -7 -4 -30 -23 -51 -43 -21 -20 -84 -79 -141 -131 -91 -85 -148 -156 -154 -192 -1 -7 -5 -18 -8 -24 -12 -19 -1 -157 15 -194 25 -57 91 -124 159 -160 59 -32 70 -34 158 -35 88 0 100 3 160 32 36 18 90 56 121 85 30 29 95 89 143 133 48 44 99 100 113 124 26 43 50 129 47 166 -4 52 -14 88 -35 130 -33 66 -67 98 -151 142 -43 23 -66 27 -143 30 -51 1 -94 0 -97 -3z" />
    <path
      d="M4727 6754 c-1 -1 -29 -5 -62 -8 -33 -4 -67 -8 -75 -10 -17 -3 -91 -19 -102 -22 -5 -1 -10 -3 -13 -4 -3 -1 -8 -3 -12 -5 -5 -1 -21 -5 -38 -10 -45 -13 -196 -80 -240 -108 -47 -29 -172 -123 -196 -146 -14 -14 -68 -64 -119 -111 -51 -47 -113 -105 -139 -128 -25 -24 -84 -78 -130 -120 -46 -43 -98 -90 -115 -107 -87 -80 -252 -233 -276 -255 -140 -128 -240 -221 -271 -250 -20 -19 -79 -73 -130 -120 -50 -47 -107 -98 -124 -115 -18 -16 -72 -67 -121 -112 -49 -44 -110 -101 -135 -125 -25 -23 -85 -79 -134 -123 -48 -44 -106 -98 -129 -120 -24 -22 -85 -78 -136 -125 -52 -47 -110 -101 -131 -120 -69 -66 -221 -205 -229 -210 -13 -8 -59 -103 -66 -135 -19 -90 -6 -173 38 -248 34 -59 56 -78 123 -112 72 -35 154 -46 242 -32 42 7 143 57 150 74 3 7 9 13 13 13 4 0 32 24 63 53 83 78 174 162 277 257 51 47 114 105 140 130 27 25 70 65 97 90 53 48 240 221 303 280 21 19 82 76 136 125 54 50 115 106 135 125 21 19 77 71 125 115 48 44 103 96 124 115 32 30 142 132 255 235 18 17 82 76 142 132 60 56 118 110 130 120 24 22 222 205 264 245 29 27 176 153 194 166 94 66 297 86 425 42 83 -28 136 -64 255 -175 54 -49 103 -93 109 -98 11 -7 -16 -35 -200 -202 -48 -44 -102 -93 -120 -110 -43 -41 -221 -204 -253 -233 -39 -36 -209 -192 -253 -234 -22 -20 -71 -65 -109 -100 -39 -34 -85 -76 -103 -93 -106 -98 -242 -223 -266 -245 -29 -26 -193 -177 -240 -220 -161 -147 -228 -209 -249 -228 -44 -40 -210 -193 -287 -266 -48 -44 -83 -88 -101 -123 -115 -236 171 -516 436 -426 55 18 107 54 177 120 44 41 124 114 254 233 123 112 241 221 273 253 21 20 40 37 42 37 2 0 23 19 48 43 52 49 129 121 252 232 48 44 105 96 125 115 35 33 196 182 244 225 66 59 223 204 251 230 38 36 211 194 235 215 20 18 187 171 274 252 33 32 65 58 69 58 8 0 99 -84 201 -186 53 -53 127 -164 110 -164 -4 0 -2 -6 4 -12 28 -36 31 -205 3 -255 -5 -10 -10 -21 -11 -25 -10 -40 -13 -48 -19 -48 -3 0 -12 -13 -19 -29 -11 -25 -86 -100 -268 -268 -145 -133 -253 -233 -280 -258 -45 -43 -230 -215 -269 -250 -18 -16 -84 -77 -146 -135 -62 -58 -142 -132 -178 -165 -36 -33 -90 -84 -120 -112 -31 -29 -59 -53 -63 -53 -5 0 -8 -6 -8 -14 0 -7 -6 -19 -14 -25 -30 -25 -50 -86 -52 -156 -1 -38 2 -74 6 -80 4 -5 11 -21 15 -35 20 -64 95 -138 185 -182 56 -28 76 -32 146 -32 71 0 89 4 145 32 35 17 89 55 120 84 66 62 260 243 305 285 17 15 75 69 129 118 53 50 109 101 124 114 14 13 75 69 135 125 59 56 120 112 135 126 15 14 78 72 141 130 177 161 344 330 376 380 16 25 32 47 36 50 25 19 117 238 133 320 3 14 9 41 13 60 9 47 9 273 -1 334 -12 74 -32 144 -61 216 -31 77 -106 210 -118 210 -4 0 -8 6 -8 14 0 16 -151 170 -299 306 -57 52 -129 118 -159 145 -30 28 -76 70 -102 95 -26 25 -87 81 -135 125 -48 44 -106 98 -129 120 -23 22 -81 75 -128 118 -47 42 -98 89 -112 102 -34 31 -209 146 -217 143 -3 -2 -13 2 -21 9 -29 25 -197 82 -298 103 -84 17 -331 35 -343 24z" />
    <path
      d="M1577 6024 c-2 -3 -14 -7 -27 -9 -39 -7 -103 -44 -145 -81 -22 -20 -82 -75 -134 -123 -51 -47 -105 -97 -120 -110 -22 -20 -150 -139 -276 -256 -18 -16 -81 -75 -141 -130 -60 -55 -123 -113 -140 -130 -18 -16 -74 -68 -125 -115 -51 -47 -109 -101 -129 -120 -20 -19 -76 -71 -125 -115 -188 -170 -214 -210 -211 -326 3 -89 27 -143 95 -210 148 -148 353 -151 506 -8 17 16 53 50 81 76 28 26 78 73 111 103 57 53 230 212 337 312 28 26 65 59 81 74 44 40 232 214 269 249 18 17 79 73 136 125 278 255 320 296 320 310 0 5 3 10 8 10 4 0 15 20 25 44 80 195 -90 422 -325 431 -37 2 -69 1 -71 -1z" />
    <path
      d="M1010 3616 c-69 -19 -98 -39 -199 -133 -112 -103 -135 -123 -143 -123 -4 0 -8 -7 -8 -15 0 -8 -3 -15 -7 -15 -8 0 -26 -15 -158 -137 -38 -36 -115 -106 -170 -156 -55 -51 -140 -132 -190 -182 -80 -78 -94 -98 -109 -148 -53 -171 75 -361 273 -406 95 -21 222 13 292 78 16 14 43 40 62 56 41 38 237 218 287 265 43 40 126 117 266 245 153 140 200 191 223 237 111 231 -155 507 -419 434z" />
    <path
      d="M2540 3150 c-55 -10 -141 -55 -186 -97 -23 -21 -88 -81 -144 -133 -56 -52 -119 -111 -140 -130 -21 -19 -79 -73 -130 -120 -190 -173 -210 -198 -228 -286 -31 -145 72 -300 243 -365 40 -15 151 -19 189 -7 66 21 120 53 168 101 15 15 29 27 31 27 2 0 33 28 69 63 36 34 89 84 119 111 279 253 362 334 384 376 63 120 40 254 -61 354 -51 50 -137 96 -191 103 -21 2 -49 5 -63 7 -14 1 -41 0 -60 -4z" />
    <path
      d="M6627 3144 c-101 -27 -94 -22 -387 -294 -63 -59 -128 -119 -145 -135 -16 -15 -75 -68 -129 -118 -54 -51 -111 -103 -126 -117 -15 -14 -72 -66 -126 -117 -54 -50 -112 -103 -129 -119 -28 -26 -201 -184 -271 -249 -17 -16 -76 -70 -129 -120 -382 -353 -390 -361 -418 -419 -38 -76 -38 -175 -1 -233 8 -13 12 -23 9 -23 -8 0 26 -41 70 -85 108 -108 274 -134 403 -65 31 17 87 59 123 93 37 34 106 98 154 142 48 44 101 94 119 110 36 34 236 219 281 261 27 25 203 187 280 259 37 34 205 188 244 224 14 13 73 68 131 121 58 54 119 111 136 126 290 266 296 272 323 341 24 61 21 151 -7 214 -65 147 -256 244 -405 203z" />
    <path
      d="M4115 2682 c-35 -7 -119 -50 -146 -74 -143 -127 -230 -216 -255 -261 -25 -46 -28 -62 -28 -137 0 -68 4 -94 22 -131 39 -80 104 -133 213 -177 14 -5 63 -9 110 -8 72 1 93 5 149 33 61 29 87 51 252 209 80 77 109 133 113 225 8 147 -83 270 -233 314 -48 15 -145 18 -197 7z" />
    <path
      d="M1076 1829 c-33 -11 -81 -37 -106 -57 -43 -34 -124 -125 -125 -141 -1 -3 -7 -24 -15 -46 -26 -78 -11 -180 37 -253 26 -37 113 -121 113 -108 0 3 19 -4 43 -17 35 -18 57 -22 137 -21 81 0 104 4 152 26 59 28 174 131 196 178 64 135 43 270 -57 363 -72 68 -138 93 -246 95 -48 1 -88 -4 -129 -19z" />
    <path
      d="M3063 1720 c-40 -9 -108 -50 -154 -92 -40 -36 -213 -195 -264 -243 -18 -16 -77 -70 -130 -120 -54 -49 -113 -103 -131 -120 -17 -16 -71 -66 -119 -110 -159 -146 -193 -194 -199 -286 -4 -55 18 -149 38 -161 6 -4 8 -8 4 -8 -8 0 23 -40 58 -74 89 -89 211 -126 329 -101 40 8 107 41 136 66 13 11 62 56 109 99 47 43 99 90 115 106 17 15 77 71 135 125 58 53 114 106 126 116 19 17 176 162 285 264 26 24 60 67 75 94 24 42 28 61 28 125 0 91 -25 149 -93 218 -92 93 -224 132 -348 102z" />
    <path
      d="M4174 889 c-101 -31 -205 -121 -248 -215 -31 -66 -30 -177 1 -246 33 -72 132 -160 196 -174 4 -1 8 -2 10 -3 15 -13 146 -17 195 -7 59 12 129 54 189 114 70 70 83 87 83 105 0 7 6 19 12 25 9 9 13 44 13 100 0 75 -4 94 -27 137 -49 93 -142 163 -225 169 -13 0 -23 4 -23 7 0 12 -124 4 -176 -12z" />
  </g>
</svg>
