<svg id="uuid-1c3ebb1a-e399-4ac2-a3dd-00caf8dca338" xmlns="http://www.w3.org/2000/svg" viewBox="0 0 902 902" width="100%" height="100%" preserveAspectRatio="xMidYMid meet">
  <g>
    <g>
      <path
        d="M364.08,612.93c-14.37,0-28.75-10.48-28.75-30.36v-170.75c0-63.41,51.45-114.86,114.86-114.86s114.86,51.45,114.86,114.86-51.45,114.86-114.86,114.86h0c-18.67,0-36.94-4.57-53.47-13.3l-3.36-1.88v71.07c0,20.02-14.78,30.36-29.29,30.36m85.98-257.94c-31.44-.13-57.1,25.39-57.23,56.83-.13,31.44,25.39,57.1,56.83,57.23,31.44,.13,57.1-25.39,57.23-56.83v-.4c-.13-31.44-25.39-56.69-56.83-56.83" />
      <path
        d="M437.16,757.82c-40.74,0-81.3-8.12-119.22-24.05-52.16-21.91-97.14-57.75-130.08-103.65-9.52-13.26-6.48-31.73,6.78-41.25,13.26-9.52,31.73-6.48,41.24,6.78,53.84,75.03,144.21,113.58,235.85,100.62,16.17-2.28,31.12,8.96,33.41,25.12,2.29,16.16-8.96,31.12-25.12,33.41-14.24,2.01-28.56,3.01-42.86,3.01Z" />
      <path
        d="M657.44,648.61c-6.24,0-12.53-1.97-17.88-6.04-12.99-9.89-15.51-28.43-5.62-41.42,61.05-80.22,67.58-188.27,16.64-275.26-33.42-57.07-87.07-97.71-151.07-114.43-63.99-16.72-130.66-7.52-187.73,25.91-20.21,11.84-38.53,26.34-54.47,43.1-11.24,11.83-29.95,12.31-41.79,1.06-11.83-11.25-12.31-29.95-1.06-41.79,19.76-20.79,42.45-38.75,67.44-53.39,70.69-41.41,153.28-52.8,232.55-32.09,79.27,20.71,145.73,71.05,187.13,141.75,31.33,53.49,45.63,114.33,41.37,175.95-4.16,60.12-25.59,117.17-61.97,164.97-5.81,7.64-14.63,11.66-23.54,11.66Z" />
    </g>
  </g>
</svg>
