<svg xmlns="http://www.w3.org/2000/svg" id="Layer_1" data-name="Layer 1" viewBox="0 0 211 24.06" width="100%" height="100%" preserveAspectRatio="xMidYMid meet">
  <path
    d="M84.51,4.47,78.1,23.6H74.91L70,12,65.08,23.6H61.89L55.48,4.47h4.05l4.32,12.89L69.34,4.67h1.28l5.56,12.79,4.39-13Z" />
  <path
    d="M106,4.46V23.59h-3.18l-.38-2.33a9.61,9.61,0,0,1-6.94,2.8,9.76,9.76,0,0,1-10-10,9.74,9.74,0,0,1,10-10,9.64,9.64,0,0,1,7,2.85L103,4.46Zm-4,9.56a6.25,6.25,0,1,0-12.5,0,6.25,6.25,0,1,0,12.5,0Z" />
  <path
    d="M122.33,20V23.6h-2.92c-4.19,0-6.78-2.59-6.78-6.81V7.84h-3.42V7.07L115.86,0h.67V4.47h5.7V7.84h-5.67v8.64A3.22,3.22,0,0,0,120.15,20Z" />
  <path
    d="M138.47,20V23.6h-2.92c-4.2,0-6.78-2.59-6.78-6.81V7.84h-3.42V7.07L132,0h.67V4.47h5.69V7.84H132.7v8.64A3.22,3.22,0,0,0,136.29,20Z" />
  <path
    d="M141.66,17.52h3.84c.1,2,1.8,3.08,4.1,3.08,2.12,0,3.74-.89,3.74-2.49,0-1.81-2.05-2.23-4.39-2.62-3.19-.55-6.95-1.27-6.95-5.71C142,6.35,145,4,149.42,4s7.33,2.42,7.4,6.13H153.1c-.08-1.82-1.46-2.8-3.77-2.8s-3.52.93-3.52,2.33c0,1.68,1.95,2,4.26,2.4,3.23.54,7.16,1.16,7.16,5.88,0,3.71-3.1,6.12-7.76,6.12S141.76,21.49,141.66,17.52Z" />
  <path
    d="M173.28,20V23.6h-2.92c-4.19,0-6.78-2.59-6.78-6.81V7.84h-3.42V7.07L166.81,0h.67V4.47h5.69V7.84h-5.66v8.64A3.22,3.22,0,0,0,171.1,20Z" />
  <path
    d="M176.47,14a10.23,10.23,0,0,1,20.46,0,10.23,10.23,0,0,1-20.46,0Zm16.45,0a6.23,6.23,0,1,0-12.45,0,6.23,6.23,0,1,0,12.45,0Z" />
  <path d="M211,4.36V8.07h-2.08c-3.25,0-4.87,1.86-4.87,5.33V23.6h-3.93V4.47h2.66l.66,2.61a6.8,6.8,0,0,1,5.86-2.72Z" />
  <path
    d="M14.53,24A3.11,3.11,0,0,1,11.9,22.6L.49,4.82A3.13,3.13,0,0,1,3.13,0H16.85a3.13,3.13,0,0,1,2.63,1.44l9.26,14.45L38,6.26H29A3.13,3.13,0,1,1,29,0H45.35A3.13,3.13,0,0,1,47.6,5.3L30.5,23.08a3.1,3.1,0,0,1-2.56,1,3.16,3.16,0,0,1-2.33-1.43L15.13,6.26H8.85l8.31,13A3.12,3.12,0,0,1,14.53,24Z" />
</svg>
