<svg
  xmlns="http://www.w3.org/2000/svg"
  xmlns:xlink="http://www.w3.org/1999/xlink"
  version="1.1"
  id="Vrstva_1"
  x="0px"
  y="0px"
  viewBox="0 0 306.2 44.2"
  style="enable-background: new 0 0 306.2 44.2"
  width="100%"
  height="100%"
  preserveAspectRatio="xMidYMid meet"
  xml:space="preserve">
  <g>
    <g>
      <g>
        <polygon points="272.5,10.4 250.7,44.2 306.2,0.7 290.1,2.9    " />
        <polygon points="272.3,44.2 296.7,34.6 301.4,23.2 306.2,0.7    " />
        <polygon points="306.2,0.7 262.8,0.7 272.5,10.4    " />
        <polygon points="306.2,44.2 306.2,0.7 296.7,34.6    " />
      </g>
    </g>
    <g>
      <path
        d="M11.8,0.8h7.1l2.5,8.7l2.5-8.7h7.1l-4.6,13.4l2,5.9l6-19.3h8.4l-11,28.1h-6.4l-4-10l-4,10H11L0,0.8h8.3    L14.4,20l1.9-5.9L11.8,0.8z" />
      <path
        d="M51.6,29.3c-1.8,0-3.4-0.3-4.9-0.8c-1.4-0.6-2.6-1.3-3.6-2.3c-1-1-1.7-2.1-2.2-3.4c-0.5-1.3-0.8-2.6-0.8-4    c0-1.5,0.2-2.9,0.7-4.3s1.2-2.5,2.2-3.5c1-1,2.1-1.8,3.6-2.4C48,8,49.7,7.7,51.6,7.7c1.8,0,3.5,0.3,4.9,0.9    c1.4,0.6,2.6,1.4,3.6,2.4c1,1,1.7,2.1,2.2,3.4c0.5,1.3,0.7,2.7,0.7,4.1c0,0.4,0,0.8-0.1,1.2c0,0.4-0.1,0.8-0.1,1.1H48.2    c0.1,1.1,0.5,1.9,1.2,2.4c0.7,0.5,1.5,0.7,2.4,0.7c0.8,0,1.6-0.2,2.3-0.6c0.7-0.4,1.2-0.9,1.4-1.5l6.4,1.8c-0.8,1.7-2.1,3-3.9,4.1    C56.3,28.7,54.1,29.3,51.6,29.3z M54.9,16.2c-0.1-1-0.5-1.8-1.1-2.4c-0.6-0.6-1.4-0.9-2.3-0.9c-0.9,0-1.7,0.3-2.3,0.9    c-0.6,0.6-1,1.4-1.1,2.4H54.9z" />
      <path
        d="M78.6,29.3c-3.1,0-5.4-1.2-6.7-3.6v3.2h-6.5V0h7.5v11.1c0.6-1.1,1.5-2,2.6-2.6c1.1-0.6,2.4-0.9,3.9-0.9    c1.3,0,2.4,0.3,3.5,0.8c1.1,0.6,2,1.3,2.8,2.3c0.8,1,1.4,2.1,1.9,3.4c0.4,1.3,0.7,2.8,0.7,4.3c0,1.6-0.2,3-0.7,4.3    c-0.5,1.3-1.2,2.4-2,3.4c-0.9,0.9-1.9,1.7-3.1,2.2C81.3,29,80,29.3,78.6,29.3z M76.5,22.9c1.2,0,2.2-0.4,3-1.2    c0.8-0.8,1.1-1.8,1.1-3.2c0-0.6-0.1-1.2-0.3-1.8c-0.2-0.6-0.5-1-0.8-1.5c-0.3-0.4-0.7-0.8-1.2-1c-0.5-0.2-1-0.4-1.5-0.4    c-0.8,0-1.5,0.3-2.3,0.9c-0.7,0.6-1.3,1.3-1.6,2.2v3.7C73.9,22.2,75.1,22.9,76.5,22.9z" />
      <path
        d="M99.5,29.3c-1.8,0-3.6-0.3-5.3-0.9c-1.7-0.6-3.2-1.5-4.4-2.6l2.6-4.5c1.3,0.9,2.5,1.5,3.7,2    c1.2,0.5,2.3,0.7,3.3,0.7c1.1,0,1.6-0.3,1.6-1c0-0.4-0.2-0.7-0.6-0.9c-0.4-0.3-1.2-0.6-2.4-0.9c-1.5-0.4-2.7-0.8-3.7-1.2    c-1-0.4-1.8-0.9-2.4-1.3c-0.6-0.5-1.1-1-1.3-1.6c-0.3-0.6-0.4-1.3-0.4-2.1c0-1.1,0.2-2,0.6-2.9c0.4-0.9,1-1.7,1.8-2.3    c0.8-0.7,1.6-1.2,2.7-1.5c1-0.4,2.2-0.5,3.4-0.5c1.5,0,3,0.2,4.4,0.6c1.4,0.4,2.8,1.2,4.2,2.4l-2.8,4.5c-1.3-0.8-2.4-1.4-3.2-1.8    c-0.9-0.4-1.7-0.5-2.5-0.5c-0.4,0-0.8,0.1-1.1,0.3c-0.3,0.2-0.4,0.4-0.4,0.8c0,0.4,0.2,0.7,0.6,1c0.4,0.3,1.3,0.5,2.5,0.9    c1.5,0.4,2.8,0.8,3.8,1.2c1,0.4,1.9,0.9,2.5,1.4c0.6,0.5,1.1,1.1,1.3,1.7c0.3,0.6,0.4,1.4,0.4,2.2c0,1.1-0.2,2-0.6,2.9    c-0.4,0.8-1,1.6-1.7,2.2c-0.8,0.6-1.7,1.1-2.7,1.4C102.1,29.1,100.9,29.3,99.5,29.3z" />
      <path
        d="M109.6,18.5c0-1.4,0.3-2.8,0.8-4.1c0.5-1.3,1.2-2.5,2.2-3.4c1-1,2.2-1.8,3.6-2.4c1.4-0.6,3.1-0.9,4.9-0.9    c2.5,0,4.6,0.5,6.3,1.6c1.7,1.1,3,2.4,3.8,4.1l-7.3,2.2c-0.7-1-1.7-1.5-2.9-1.5c-1,0-1.9,0.4-2.6,1.2c-0.7,0.8-1.1,1.9-1.1,3.3    c0,1.4,0.4,2.5,1.1,3.3c0.7,0.8,1.6,1.2,2.6,1.2c1.2,0,2.2-0.5,2.9-1.5l7.3,2.2c-0.8,1.7-2.1,3-3.8,4.1c-1.7,1.1-3.8,1.6-6.3,1.6    c-1.8,0-3.5-0.3-4.9-0.9c-1.4-0.6-2.6-1.4-3.6-2.4c-1-1-1.7-2.1-2.2-3.4C109.9,21.2,109.6,19.9,109.6,18.5z" />
      <path
        d="M143.6,29.3c-1.9,0-3.5-0.3-4.9-0.9c-1.4-0.6-2.6-1.4-3.6-2.4c-1-1-1.7-2.1-2.2-3.4c-0.5-1.3-0.7-2.7-0.7-4.1    c0-1.4,0.2-2.8,0.7-4.1c0.5-1.3,1.2-2.5,2.2-3.4c1-1,2.1-1.8,3.6-2.4c1.4-0.6,3-0.9,4.9-0.9c1.8,0,3.5,0.3,4.9,0.9    c1.4,0.6,2.6,1.4,3.6,2.4c1,1,1.7,2.1,2.2,3.4c0.5,1.3,0.7,2.7,0.7,4.1c0,1.4-0.2,2.8-0.7,4.1c-0.5,1.3-1.2,2.5-2.2,3.4    c-1,1-2.2,1.8-3.6,2.4C147.1,29,145.5,29.3,143.6,29.3z M139.9,18.5c0,1.4,0.3,2.5,1,3.3c0.7,0.8,1.6,1.2,2.6,1.2s2-0.4,2.6-1.2    c0.7-0.8,1-1.9,1-3.3c0-1.4-0.3-2.5-1-3.3c-0.7-0.8-1.6-1.2-2.6-1.2s-2,0.4-2.6,1.2C140.3,16,139.9,17.1,139.9,18.5z" />
      <path
        d="M171.7,29.3c-1.5,0-2.8-0.3-3.9-0.9c-1.1-0.6-2-1.5-2.6-2.6v11.5h-7.5V8.1h6.5v3.1c0.7-1.1,1.6-2,2.7-2.6    c1.1-0.6,2.4-0.9,4-0.9c1.4,0,2.6,0.3,3.8,0.8c1.2,0.5,2.2,1.3,3,2.2c0.8,0.9,1.5,2.1,2,3.4c0.5,1.3,0.7,2.7,0.7,4.3    c0,1.6-0.2,3-0.7,4.3c-0.4,1.3-1.1,2.5-1.9,3.5c-0.8,1-1.7,1.7-2.8,2.3C174.1,29,172.9,29.3,171.7,29.3z M169,22.9    c0.6,0,1.1-0.1,1.5-0.4c0.5-0.2,0.9-0.6,1.2-1c0.3-0.4,0.6-0.9,0.8-1.5c0.2-0.6,0.3-1.1,0.3-1.8c0-1.3-0.4-2.4-1.1-3.2    c-0.8-0.8-1.7-1.2-3-1.2c-1.4,0-2.6,0.7-3.6,2.1v3.6c0.4,0.9,0.9,1.7,1.6,2.3C167.5,22.6,168.2,22.9,169,22.9z" />
      <path
        d="M193.5,29.3c-1.8,0-3.4-0.3-4.9-0.8c-1.4-0.6-2.6-1.3-3.6-2.3c-1-1-1.7-2.1-2.2-3.4c-0.5-1.3-0.8-2.6-0.8-4    c0-1.5,0.2-2.9,0.7-4.3c0.5-1.3,1.2-2.5,2.2-3.5c1-1,2.1-1.8,3.6-2.4c1.4-0.6,3-0.9,4.9-0.9c1.8,0,3.5,0.3,4.9,0.9    c1.4,0.6,2.6,1.4,3.6,2.4c1,1,1.7,2.1,2.2,3.4c0.5,1.3,0.7,2.7,0.7,4.1c0,0.4,0,0.8-0.1,1.2c0,0.4-0.1,0.8-0.1,1.1h-14.6    c0.1,1.1,0.5,1.9,1.2,2.4c0.7,0.5,1.5,0.7,2.4,0.7c0.8,0,1.6-0.2,2.3-0.6c0.7-0.4,1.2-0.9,1.4-1.5l6.4,1.8c-0.8,1.7-2.1,3-3.9,4.1    C198.2,28.7,196,29.3,193.5,29.3z M196.8,16.2c-0.1-1-0.5-1.8-1.1-2.4c-0.6-0.6-1.4-0.9-2.3-0.9c-0.9,0-1.7,0.3-2.3,0.9    c-0.6,0.6-1,1.4-1.1,2.4H196.8z" />
      <path d="M207.4,28.9v-7.3h6.1v7.3H207.4z" />
      <path d="M217.3,6.3V0h7.5v6.3H217.3z M217.3,28.9V8.1h7.5v20.8H217.3z" />
      <path
        d="M238.9,29.3c-1.9,0-3.5-0.3-4.9-0.9c-1.4-0.6-2.6-1.4-3.6-2.4c-1-1-1.7-2.1-2.2-3.4c-0.5-1.3-0.7-2.7-0.7-4.1    c0-1.4,0.2-2.8,0.7-4.1c0.5-1.3,1.2-2.5,2.2-3.4c1-1,2.1-1.8,3.6-2.4c1.4-0.6,3.1-0.9,4.9-0.9c1.8,0,3.5,0.3,4.9,0.9    c1.4,0.6,2.6,1.4,3.6,2.4c1,1,1.7,2.1,2.2,3.4c0.5,1.3,0.7,2.7,0.7,4.1c0,1.4-0.2,2.8-0.7,4.1c-0.5,1.3-1.2,2.5-2.2,3.4    c-1,1-2.2,1.8-3.6,2.4C242.4,29,240.7,29.3,238.9,29.3z M235.2,18.5c0,1.4,0.3,2.5,1,3.3c0.7,0.8,1.6,1.2,2.6,1.2    c1.1,0,2-0.4,2.6-1.2c0.7-0.8,1-1.9,1-3.3c0-1.4-0.3-2.5-1-3.3c-0.7-0.8-1.6-1.2-2.6-1.2c-1.1,0-2,0.4-2.6,1.2    C235.6,16,235.2,17.1,235.2,18.5z" />
    </g>
  </g>
</svg>
